<?xml version="1.0" standalone="no"?>
<!DOCTYPE svg PUBLIC "-//W3C//DTD SVG 20010904//EN"
 "http://www.w3.org/TR/2001/REC-SVG-20010904/DTD/svg10.dtd">
<svg version="1.0" xmlns="http://www.w3.org/2000/svg"
 width="1024.000000pt" height="1024.000000pt" viewBox="0 0 1024.000000 1024.000000"
 preserveAspectRatio="xMidYMid meet">
<metadata>
Created by potrace 1.14, written by Peter Selinger 2001-2017
</metadata>
<g transform="translate(0.000000,1024.000000) scale(0.100000,-0.100000)"
fill="#000000" stroke="none">
<path d="M5830 8021 c-14 -4 -20 -9 -15 -13 6 -3 24 1 40 8 32 14 17 17 -25 5z"/>
<path d="M6015 7959 c-35 -15 -89 -32 -119 -38 -59 -11 -102 -30 -151 -66 -16
-13 -54 -35 -82 -49 -29 -15 -53 -31 -53 -36 0 -14 7 -13 78 12 61 22 64 22
74 5 7 -14 17 -17 36 -12 39 10 14 -16 -45 -45 -66 -33 -148 -54 -213 -54 -99
-1 -149 26 -72 39 20 3 44 11 52 16 11 8 9 9 -10 4 -14 -3 -52 -10 -86 -14
-63 -9 -237 -73 -266 -98 -10 -9 -18 -11 -22 -4 -4 5 -2 12 4 16 23 14 8 26
-26 19 -53 -10 -35 11 22 25 26 7 69 23 96 37 28 14 52 23 55 21 8 -9 124 42
205 89 53 31 94 48 126 51 26 3 52 12 59 20 6 8 24 18 40 23 25 8 24 8 -17 9
-35 1 -69 -11 -155 -53 -112 -55 -248 -100 -288 -94 -19 3 -15 7 23 28 27 15
52 39 62 59 11 23 32 40 67 57 28 12 51 25 51 27 0 7 -120 -34 -190 -64 -38
-17 -74 -26 -87 -23 -20 6 -151 -37 -1113 -366 -212 -72 -414 -141 -450 -152
-36 -11 -100 -33 -143 -50 -62 -24 -81 -27 -92 -18 -8 7 -26 9 -40 6 -14 -4
-25 -2 -25 4 0 5 -6 10 -14 10 -9 0 -18 -16 -23 -42 -10 -52 -3 -48 -253 -139
-194 -72 -487 -193 -504 -210 -20 -18 3 -19 62 -3 55 15 64 15 118 1 33 -9 47
-15 32 -13 -35 4 -36 -6 -3 -24 20 -11 27 -11 40 0 9 7 15 8 15 2 0 -6 -15
-22 -32 -36 l-33 -26 32 0 c33 0 53 -15 31 -23 -7 -2 -9 -8 -5 -13 4 -4 32 4
61 18 29 15 75 30 102 33 27 4 55 12 62 18 10 8 16 7 22 -2 6 -11 10 -9 18 4
7 14 17 17 42 11 33 -6 33 -6 15 14 -24 27 -2 26 36 -1 29 -20 40 -14 17 9 -8
8 -9 15 -2 22 7 7 19 -3 36 -30 15 -22 24 -41 20 -43 -4 -2 -42 -14 -84 -27
-43 -13 -78 -27 -78 -32 0 -12 17 -10 100 12 41 11 76 20 78 20 7 0 0 -60 -8
-65 -5 -3 -10 3 -10 14 0 25 -4 26 -41 4 -27 -16 -47 -48 -36 -59 2 -3 22 -1
44 4 l41 9 7 -146 c4 -90 3 -163 -4 -191 -5 -25 -12 -183 -15 -351 -3 -168 -8
-335 -12 -371 l-7 -66 -151 -67 c-83 -37 -166 -76 -184 -87 l-32 -20 37 -51
c20 -29 39 -55 43 -60 4 -4 27 4 52 18 33 19 48 22 54 14 7 -12 -27 -44 -59
-55 -25 -8 -17 -39 10 -38 11 0 19 -5 17 -11 -11 -27 86 -56 130 -39 19 7 21
45 4 62 -9 9 -9 12 0 12 6 0 17 -19 24 -41 11 -37 10 -43 -6 -55 -11 -7 -24
-15 -30 -17 -6 -2 -8 -8 -4 -11 3 -4 27 2 53 13 39 17 47 18 52 6 4 -13 1
-302 -10 -804 l-2 -115 -95 -31 c-174 -57 -200 -67 -200 -75 0 -5 15 -4 32 1
35 10 52 7 111 -18 38 -17 49 -33 21 -33 -13 0 -14 -3 -5 -14 9 -11 9 -15 -1
-19 -9 -4 -7 -6 4 -6 9 -1 18 -6 20 -12 2 -7 21 -6 60 5 30 9 71 18 89 20 19
2 42 7 53 11 11 5 21 3 28 -6 7 -12 11 -11 20 3 11 15 13 15 24 1 7 -10 18
-14 29 -10 16 7 16 9 0 33 -20 31 -15 42 7 17 33 -37 26 -56 -24 -72 -53 -18
-65 -34 -18 -24 25 5 30 2 30 -15 0 -13 -9 -22 -25 -26 -34 -9 -35 -46 -1 -46
33 0 76 17 76 30 0 5 -9 10 -20 10 -20 0 -26 16 -12 36 11 17 62 27 62 12 0
-8 5 -6 11 5 12 20 49 23 49 3 0 -24 -12 -46 -21 -40 -11 7 -49 -14 -49 -27 0
-6 7 -8 17 -5 9 4 32 9 52 12 20 3 41 10 47 15 6 5 14 6 17 2 4 -3 7 -1 7 5 0
7 6 12 14 12 18 0 29 17 21 31 -5 6 -13 3 -22 -10 -20 -30 -59 -28 -65 4 -3
13 -1 23 4 22 6 -1 15 6 21 17 9 14 9 20 -1 23 -6 3 -10 9 -6 14 3 5 0 9 -5 9
-21 0 -11 21 14 30 38 14 31 17 -32 13 -40 -3 -53 -1 -43 6 27 17 293 122 345
136 28 7 64 21 80 29 38 20 45 20 45 1 0 -9 -8 -18 -17 -21 -10 -3 -42 -17
-72 -31 -43 -20 -55 -22 -62 -12 -12 21 -40 -20 -35 -51 4 -26 -31 -68 -56
-67 -34 1 -48 -4 -48 -18 0 -26 31 -65 52 -65 10 0 16 -5 13 -10 -3 -6 -1 -10
4 -10 6 0 11 7 11 15 0 8 5 15 10 15 9 0 14 -14 11 -32 -2 -13 14 -9 70 15 30
13 77 29 104 36 28 7 58 14 68 17 38 12 14 -12 -31 -30 -139 -55 -213 -96
-172 -96 20 0 428 142 523 181 54 23 104 50 111 61 15 21 143 68 242 88 32 7
91 25 129 40 103 41 245 83 253 75 13 -13 8 -712 -12 -1753 -4 -169 -2 -261 4
-257 6 4 10 72 11 158 1 111 3 142 10 117 5 -19 8 -62 7 -95 -3 -94 1 -145 12
-145 6 0 15 10 20 23 8 20 9 21 10 2 1 -12 4 -15 7 -7 4 10 8 8 18 -5 13 -17
14 -17 21 0 3 10 1 29 -6 43 -10 19 -11 32 -2 63 16 52 15 94 -4 162 -13 47
-14 64 -5 91 7 18 16 105 21 193 15 236 27 328 41 319 5 -3 9 -15 9 -28 0 -12
5 -27 10 -32 7 -7 8 -33 1 -80 -5 -38 -13 -95 -16 -126 -5 -41 -11 -58 -21
-58 -11 0 -14 -26 -15 -137 -2 -183 -1 -211 12 -234 5 -11 12 -47 14 -82 4
-55 6 -62 25 -60 12 2 20 -3 20 -12 0 -8 5 -15 11 -15 7 0 8 14 3 43 -4 23 -7
121 -6 217 2 169 4 202 18 282 4 25 1 52 -10 78 -26 64 -21 119 13 161 43 52
46 76 17 132 -14 26 -21 47 -16 47 5 0 12 -4 15 -10 3 -5 10 -10 15 -10 14 0
-28 93 -51 113 -28 23 -36 22 -53 -10 -13 -25 -15 -26 -22 -10 -6 17 10 170
22 200 2 7 18 18 34 24 29 11 29 11 14 -13 -15 -22 -14 -26 6 -58 20 -34 77
-72 89 -61 3 3 0 15 -7 25 -17 28 -15 51 3 44 22 -9 19 10 -12 72 -26 53 -26
56 -10 84 20 33 14 75 -11 89 -13 7 -12 13 7 45 13 20 27 34 32 30 5 -3 9 -35
9 -72 0 -71 23 -210 40 -242 5 -10 10 -47 10 -82 1 -49 3 -59 11 -45 6 11 8
45 5 85 -17 188 -18 204 -7 198 6 -4 12 -19 13 -34 4 -67 16 170 17 330 1 190
-1 198 -55 218 -19 8 -22 14 -18 53 4 39 1 47 -21 61 -32 21 -35 78 -5 99 17
12 18 17 7 46 -10 28 -10 34 5 42 14 8 15 14 6 39 -7 22 -7 34 1 44 8 9 8 22
2 38 -6 17 -5 43 3 79 l13 54 6 -45 c16 -123 27 -242 22 -250 -7 -12 12 -50
25 -50 5 0 5 12 0 29 -4 16 -6 31 -4 34 6 6 16 159 19 292 1 66 8 149 14 184
13 69 9 117 -16 164 -8 16 -11 36 -8 45 4 10 6 100 6 202 -2 180 -3 187 -32
268 -17 46 -29 85 -27 86 1 1 43 8 92 14 51 7 96 18 106 27 15 13 71 15 441
13 l424 -3 -1 -80 c-1 -44 -5 -238 -9 -432 -6 -260 -5 -359 4 -380 8 -21 9
-106 1 -343 -11 -351 -11 -840 0 -970 6 -80 7 -76 8 63 1 81 6 147 11 147 12
0 22 -114 11 -118 -6 -2 -7 -9 -3 -15 4 -7 6 -26 4 -44 -1 -17 3 -42 10 -55
l12 -23 13 30 13 30 1 -32 c0 -23 5 -33 15 -33 9 0 15 9 15 22 0 17 3 19 12
10 7 -7 18 -12 25 -12 19 0 16 37 -4 48 -14 8 -15 15 -5 55 18 68 15 122 -9
177 -20 47 -21 51 -5 91 15 36 25 132 42 384 5 70 24 146 35 139 5 -3 9 -18 9
-34 0 -15 5 -30 11 -32 7 -2 7 -43 -2 -136 -11 -121 -14 -132 -31 -127 -10 4
-18 5 -18 3 -1 -2 -3 -77 -6 -168 -6 -152 -4 -169 15 -218 12 -29 21 -73 21
-98 0 -33 5 -46 17 -51 9 -4 19 -1 21 5 2 7 8 10 12 7 5 -3 9 96 10 221 0 178
4 234 16 262 17 41 11 104 -12 123 -15 12 -18 65 -8 118 5 22 12 31 23 29 23
-5 56 50 56 92 0 26 -7 41 -27 58 -28 24 -37 52 -18 52 6 0 13 -7 16 -15 4 -8
10 -15 15 -15 16 0 10 28 -8 42 -10 7 -18 20 -18 28 0 13 -59 60 -76 60 -4 0
-16 -13 -25 -29 -10 -17 -21 -28 -26 -25 -15 10 -9 131 7 144 9 7 14 19 11 27
-9 21 4 43 36 59 32 16 50 12 30 -8 -28 -28 -4 -59 82 -103 57 -30 69 -26 32
8 -32 29 -33 42 -5 44 29 3 35 11 22 31 -7 9 -23 35 -36 58 -23 40 -23 41 -5
63 23 29 23 42 -1 72 -19 26 -18 43 7 72 30 34 42 21 42 -49 0 -63 9 -103 51
-230 14 -43 18 -73 13 -102 -7 -45 9 -60 22 -20 13 41 7 93 -15 136 -18 35
-19 42 -6 42 8 0 15 5 15 10 0 6 -5 10 -11 10 -14 0 -7 63 9 68 6 2 12 -3 12
-12 0 -9 4 -16 9 -16 4 0 11 109 13 243 6 272 8 264 -68 293 -35 13 -42 20
-33 30 8 10 7 19 -5 36 -9 12 -16 31 -16 42 0 11 -3 16 -6 13 -9 -9 -44 11
-44 25 0 6 12 27 26 45 22 30 25 38 15 59 -10 22 -8 26 13 34 18 7 23 14 19
29 -3 12 -9 21 -14 21 -16 0 -10 29 9 39 14 9 14 12 4 19 -10 7 -12 23 -7 66
7 53 16 68 30 46 3 -6 10 -43 15 -83 17 -126 17 -132 25 -149 5 -13 2 -18 -11
-18 -15 0 -15 -3 6 -25 35 -37 43 -31 35 25 -7 52 -3 57 43 51 6 -1 12 3 12 9
0 5 -3 9 -7 9 -35 -6 -42 2 -41 44 0 23 5 56 10 73 11 39 45 46 168 35 128
-11 153 0 72 34 -47 19 -172 31 -172 15 0 -4 6 -8 13 -7 6 0 32 -1 57 -3 42
-2 43 -3 15 -10 -16 -4 -54 -8 -82 -9 -43 -1 -53 2 -53 15 0 10 6 14 15 11 8
-4 17 -2 20 3 4 6 -5 10 -20 10 -29 0 -50 38 -42 78 3 13 -2 37 -10 53 -11 22
-13 57 -10 146 2 65 4 179 4 253 0 262 -4 296 -38 287 -10 -3 -19 -2 -19 2 0
8 82 31 113 31 12 0 35 7 52 16 42 22 70 22 1343 -1 228 -4 253 -3 241 11 -10
13 -10 17 1 24 10 6 6 10 -16 15 -16 4 -47 12 -69 18 l-40 11 68 7 c37 4 75
13 83 20 11 9 53 11 168 6 84 -4 156 -4 159 0 4 3 -3 11 -16 17 -48 25 -107
35 -217 40 -63 2 -130 10 -149 16 -24 9 -61 11 -130 5 -53 -4 -132 -10 -175
-14 -50 -4 -81 -11 -84 -18 -3 -10 14 -13 61 -13 92 0 130 -9 116 -26 -9 -11
-7 -14 7 -14 11 -1 30 -7 44 -14 23 -13 19 -14 -51 -21 -43 -4 -99 -2 -133 4
-33 6 -78 11 -101 11 -43 0 -133 39 -157 67 -12 15 -8 16 45 10 32 -3 57 -2
57 4 0 5 -27 9 -59 9 -33 0 -61 4 -63 10 -1 5 -40 10 -85 11 -81 1 -93 5 -73
24 6 7 -21 9 -73 7 -57 -3 -94 1 -117 11 -32 13 -15 14 195 13 127 0 275 3
331 8 77 7 110 6 140 -5 21 -7 44 -12 49 -10 6 2 30 6 55 10 l45 7 -63 15
c-48 12 -77 14 -120 6 -57 -9 -348 -3 -409 9 -45 9 -42 24 5 24 53 0 106 17
127 40 14 16 32 20 84 21 l66 2 -85 8 c-47 5 -112 6 -145 3 -41 -4 -73 -1
-100 9 -30 12 -105 17 -300 22 -143 3 -397 10 -564 15 -288 9 -306 11 -327 31
-22 20 -22 20 -28 1 -6 -19 -19 -19 -623 -16 -489 3 -618 6 -625 16 -6 10 -8
10 -8 1 0 -10 -29 -13 -112 -12 -92 0 -107 3 -83 11 116 41 389 148 480 190
61 27 139 60 175 74 92 34 180 76 180 86 0 4 -7 5 -15 2 -18 -7 -20 12 -2 20
6 2 -12 3 -40 1 -31 -3 -53 -1 -53 5 0 6 6 10 14 10 8 0 36 20 64 45 63 56
129 87 170 79 17 -4 32 -1 37 5 5 8 -2 10 -22 6 -21 -4 -17 0 15 14 23 11 42
24 42 29 0 20 -101 8 -165 -19z m30 -15 c-41 -32 -97 -56 -107 -46 -12 12 -3
18 65 43 63 22 68 23 42 3z m-240 -134 c-3 -5 -11 -10 -16 -10 -6 0 -7 5 -4
10 3 6 11 10 16 10 6 0 7 -4 4 -10z m-1019 -265 c-11 -8 -22 -12 -25 -9 -6 6
19 24 34 24 6 -1 1 -7 -9 -15z m-6 -125 c-20 -13 -43 -13 -35 0 3 6 16 10 28
10 18 0 19 -2 7 -10z m-560 -70 c0 -5 -5 -10 -11 -10 -5 0 -7 5 -4 10 3 6 8
10 11 10 2 0 4 -4 4 -10z m851 -21 c42 -21 43 -22 20 -31 -29 -10 -23 -18 15
-22 37 -4 43 -24 8 -28 -34 -4 -42 -24 -13 -31 19 -5 20 -8 9 -22 -12 -15 -8
-15 38 -9 54 7 202 -13 202 -28 0 -4 5 -8 10 -8 6 0 10 7 10 15 0 19 14 19 30
0 10 -12 15 -13 21 -4 4 7 17 9 35 5 22 -6 25 -9 13 -17 -11 -8 -9 -9 7 -4 16
4 26 -1 38 -20 9 -14 21 -25 26 -25 18 0 11 20 -15 42 -27 23 -32 38 -14 38
16 0 69 -59 69 -77 0 -12 -19 -14 -110 -11 -120 3 -146 -11 -44 -25 100 -13
327 -23 358 -15 28 7 55 33 56 54 0 6 -18 14 -40 18 -65 10 -37 24 42 20 l73
-3 -62 11 c-42 7 -63 15 -63 25 0 19 13 22 120 28 52 2 162 10 243 16 128 11
150 11 157 -2 8 -11 13 -12 30 -1 11 6 31 12 45 12 14 0 25 -6 25 -12 0 -10 2
-10 8 -1 9 15 91 22 91 8 -1 -5 -5 -9 -10 -7 -5 1 -12 -4 -15 -11 -3 -10 -27
-12 -97 -9 -51 2 -96 8 -102 12 -21 16 -70 5 -80 -18 -5 -12 -17 -24 -26 -27
-11 -4 -15 -13 -11 -32 l5 -26 -92 5 c-87 4 -91 3 -89 -16 3 -17 -5 -22 -41
-28 -24 -4 -46 -9 -48 -11 -2 -3 23 -7 56 -11 57 -7 60 -8 71 -41 16 -49 31
-44 24 8 -6 40 -5 42 20 43 28 2 31 -3 17 -25 -7 -10 -4 -19 7 -28 11 -8 12
-12 5 -13 -15 0 -18 -30 -3 -30 5 0 14 8 19 18 10 16 10 16 11 0 0 -16 15 -18
174 -18 98 0 177 -4 181 -9 7 -12 -43 -18 -195 -26 -63 -3 -119 -10 -124 -15
-6 -6 -19 -10 -31 -11 -17 -1 -16 -2 5 -9 14 -4 95 -8 180 -9 l155 -1 -1 -253
c0 -138 -4 -277 -8 -307 l-8 -55 -114 2 c-63 0 -121 6 -127 12 -20 16 -1365
44 -1737 36 -382 -8 -722 -24 -733 -34 -4 -5 12 -11 36 -14 70 -10 155 -57
102 -57 -26 0 -16 -16 12 -18 14 -1 28 -4 31 -6 9 -9 -10 -26 -29 -26 -25 0
-25 -20 2 -27 11 -3 18 -11 15 -19 -4 -10 13 -13 79 -11 70 1 87 -2 105 -18
18 -16 20 -16 14 -2 -10 26 71 16 98 -12 11 -12 23 -20 26 -16 3 3 0 11 -6 17
-13 13 -16 38 -4 38 6 0 50 -60 60 -82 2 -4 -39 -5 -90 -2 -99 6 -108 1 -38
-19 54 -16 60 -31 20 -52 -44 -23 -28 -36 43 -34 34 1 74 -2 90 -6 39 -10 34
11 -5 24 -18 5 -44 11 -58 13 -14 2 -26 11 -28 21 -3 16 4 18 76 16 69 -2 81
-4 85 -20 5 -20 37 -27 37 -9 0 6 -4 10 -10 10 -5 0 -10 4 -10 10 0 5 3 9 8 8
4 0 14 2 22 5 8 3 24 7 35 9 11 2 21 11 23 21 3 12 -3 17 -22 17 -16 0 -26 6
-26 15 0 11 13 15 53 17 40 1 44 2 17 5 -19 3 -39 9 -44 14 -6 5 -32 9 -60 9
-88 0 -36 15 89 26 33 3 67 8 75 10 8 3 47 7 85 9 39 3 92 7 119 11 38 5 47 3
44 -7 -2 -8 -14 -18 -26 -24 -12 -5 -21 -14 -20 -20 1 -5 -1 -22 -5 -37 -7
-27 -10 -28 -71 -28 -42 0 -66 4 -69 13 -3 6 -6 0 -6 -15 -1 -20 -5 -26 -16
-22 -10 4 -15 0 -15 -15 0 -12 -5 -18 -13 -15 -7 2 -21 -2 -32 -10 -25 -19 -7
-20 47 -4 33 10 41 9 49 -3 13 -21 11 -29 -8 -29 -10 -1 -1 -9 21 -20 49 -25
49 -25 36 -1 -15 29 -12 61 5 61 10 0 15 -10 15 -30 0 -16 5 -30 10 -30 6 0
10 -7 10 -15 0 -21 20 -19 21 3 1 16 2 15 6 -1 4 -16 12 -17 61 -11 32 4 60
12 64 18 6 8 8 7 8 -1 0 -9 19 -13 58 -14 31 0 66 -4 77 -9 17 -6 15 -8 -15
-13 -19 -3 -76 -9 -127 -12 -95 -6 -170 -26 -139 -38 8 -3 93 -2 187 4 95 5
173 8 175 6 2 -1 -1 -32 -7 -67 -9 -62 -26 -452 -36 -830 -2 -96 -9 -180 -14
-186 -7 -8 -6 -14 1 -19 16 -10 12 -53 -8 -64 -21 -11 -173 -43 -179 -38 -2 3
12 14 31 25 19 11 42 34 50 51 12 22 28 33 57 41 23 6 39 13 37 15 -6 6 -130
-25 -159 -41 -15 -8 -45 -14 -66 -14 -20 0 -186 -43 -368 -96 -479 -139 -847
-244 -857 -244 -4 0 -8 9 -8 20 0 11 -7 20 -15 20 -9 0 -15 -10 -15 -26 0 -19
-8 -28 -35 -40 -47 -19 -46 -19 -39 26 5 29 2 45 -8 58 -22 25 -28 60 -21 120
4 41 10 52 23 52 10 0 28 16 40 37 18 31 20 40 9 67 -7 17 -24 43 -37 58 -14
15 -22 31 -19 35 4 4 14 -3 23 -15 8 -12 19 -22 25 -22 18 0 8 42 -16 64 -14
13 -25 28 -25 33 0 5 -9 18 -20 28 -24 22 -66 13 -75 -15 -13 -41 -25 -18 -25
48 0 43 5 75 15 88 8 12 12 24 9 27 -10 10 7 48 19 44 7 -2 20 2 30 11 22 20
34 8 13 -13 -20 -20 -20 -34 -1 -41 8 -4 15 -14 15 -24 0 -25 20 -36 31 -19 5
8 9 9 9 3 0 -7 15 -19 34 -28 40 -19 58 -20 35 -3 -18 14 -35 57 -22 57 4 0
14 4 22 9 11 7 8 20 -19 66 l-32 57 18 33 c17 33 17 35 -1 69 -19 34 -19 36 0
55 32 36 45 27 45 -33 0 -53 26 -181 49 -239 6 -16 11 -56 11 -90 0 -46 3 -58
11 -50 23 23 23 107 0 158 -25 57 -25 55 -4 55 13 0 14 3 5 12 -14 14 -15 57
-2 78 8 12 12 13 19 2 10 -17 25 139 16 168 -8 24 32 64 120 121 51 33 62 37
71 24 14 -19 19 -19 98 5 53 17 69 27 81 51 9 17 15 38 14 47 -2 9 1 27 5 40
5 14 3 29 -5 38 -10 12 -10 17 -1 23 7 4 10 21 8 39 -2 17 2 33 8 35 7 3 3 16
-11 35 -16 22 -21 39 -17 64 9 50 -11 61 -93 56 -57 -3 -86 -12 -177 -56 -60
-29 -111 -50 -114 -48 -2 3 -1 13 3 23 21 55 21 310 -1 376 -13 39 -15 68 -8
145 8 100 7 440 -2 502 -5 33 -4 33 8 13 10 -16 17 -20 28 -13 8 5 21 10 29
10 11 0 11 -3 1 -15 -23 -28 -6 -24 73 15 79 39 248 95 269 88 6 -2 -48 -30
-121 -62 -125 -56 -219 -111 -208 -123 8 -7 86 20 230 79 67 28 194 79 282
114 201 81 419 188 442 218 20 25 273 135 314 136 14 0 45 -10 70 -21z m-1042
-28 c-48 -15 -73 -32 -58 -41 10 -7 6 -12 -14 -21 -15 -7 -27 -17 -27 -23 0
-6 -7 -3 -14 7 -13 17 -14 17 -18 -1 -3 -12 -28 -27 -68 -42 -52 -19 -63 -21
-71 -9 -6 10 -9 10 -9 2 0 -7 -6 -13 -14 -13 -8 0 -18 -9 -21 -20 -3 -11 -10
-20 -15 -20 -5 0 -7 -7 -4 -15 4 -9 1 -15 -7 -15 -8 0 -6 -5 6 -13 24 -18 14
-32 -46 -62 -52 -27 -54 -26 -52 23 1 7 -5 11 -12 8 -10 -3 -35 31 -35 48 0
11 192 96 221 98 26 1 35 6 32 15 -6 17 9 17 26 1 8 -7 11 -8 8 -2 -8 13 167
104 198 103 16 -1 15 -2 -6 -8z m178 -73 c-2 -13 -4 -5 -4 17 -1 22 1 32 4 23
2 -10 2 -28 0 -40z m-167 32 c0 -5 -4 -10 -10 -10 -5 0 -10 5 -10 10 0 6 5 10
10 10 6 0 10 -4 10 -10z m601 -33 c-13 -13 -26 -3 -16 12 3 6 11 8 17 5 6 -4
6 -10 -1 -17z m-536 -7 c3 -5 -1 -10 -10 -10 -9 0 -13 5 -10 10 3 6 8 10 10
10 2 0 7 -4 10 -10z m3180 -20 c-3 -5 -13 -10 -21 -10 -8 0 -14 5 -14 10 0 6
9 10 21 10 11 0 17 -4 14 -10z m-2945 -10 c0 -5 -2 -10 -4 -10 -3 0 -8 5 -11
10 -3 6 -1 10 4 10 6 0 11 -4 11 -10z m1440 -10 c0 -5 -4 -10 -9 -10 -5 0 -23
-3 -40 -6 -19 -4 -31 -2 -31 4 0 9 17 14 68 21 6 0 12 -3 12 -9z m-1800 -9 c0
-16 -28 -20 -34 -5 -4 9 1 14 14 14 11 0 20 -4 20 -9z m1690 5 c0 -2 -9 -6
-20 -9 -11 -3 -20 -1 -20 4 0 5 9 9 20 9 11 0 20 -2 20 -4z m2115 -26 c6 -2
-21 -6 -60 -10 -75 -7 -80 -6 -72 7 5 8 108 10 132 3z m-1488 -6 c-3 -3 -12
-4 -19 -1 -8 3 -5 6 6 6 11 1 17 -2 13 -5z m180 -19 c2 -11 0 -14 -3 -7 -3 6
-12 12 -20 12 -8 0 -14 5 -14 11 0 19 35 4 37 -16z m-2627 5 c0 -5 -5 -10 -11
-10 -5 0 -7 5 -4 10 3 6 8 10 11 10 2 0 4 -4 4 -10z m498 -1 c-2 -6 -8 -10
-13 -10 -5 0 -11 4 -13 10 -2 6 4 11 13 11 9 0 15 -5 13 -11z m-128 -29 c0 -5
-9 -10 -19 -10 -11 0 -23 5 -26 10 -4 6 5 10 19 10 14 0 26 -4 26 -10z m1450
0 c0 -5 -5 -10 -11 -10 -5 0 -7 5 -4 10 3 6 8 10 11 10 2 0 4 -4 4 -10z m1555
0 c-3 -5 -15 -10 -26 -10 -10 0 -19 5 -19 10 0 6 12 10 26 10 14 0 23 -4 19
-10z m1570 -10 c-45 -11 -135 -11 -135 0 0 6 33 10 83 9 59 -1 74 -4 52 -9z
m-2469 -27 c-10 -10 -19 5 -10 18 6 11 8 11 12 0 2 -7 1 -15 -2 -18z m-2786
-4 c17 -30 6 -34 -14 -4 -9 14 -12 25 -7 25 6 0 15 -9 21 -21z m589 4 c23 -19
19 -33 -9 -33 -17 0 -40 26 -40 44 0 12 31 5 49 -11z m-252 -17 c0 -8 -6 -12
-14 -9 -7 3 -10 9 -7 14 8 14 21 11 21 -5z m2303 4 c0 -5 -2 -10 -4 -10 -3 0
-8 5 -11 10 -3 6 -1 10 4 10 6 0 11 -4 11 -10z m89 -36 c6 4 11 2 11 -3 0 -6
-9 -11 -20 -11 -12 0 -20 7 -20 18 0 13 2 14 9 3 5 -7 14 -10 20 -7z m-2419
-14 c0 -10 -10 -25 -22 -31 -22 -12 -22 -11 -5 8 9 11 17 25 17 31 0 7 2 12 5
12 3 0 5 -9 5 -20z m2500 0 c0 -5 -2 -10 -4 -10 -3 0 -8 5 -11 10 -3 6 -1 10
4 10 6 0 11 -4 11 -10z m-2465 -10 c-3 -5 -12 -10 -18 -10 -7 0 -6 4 3 10 19
12 23 12 15 0z m3120 -10 c3 -5 1 -10 -4 -10 -6 0 -11 5 -11 10 0 6 2 10 4 10
3 0 8 -4 11 -10z m-3420 -32 c3 -3 -2 -11 -11 -18 -13 -12 -17 -11 -25 1 -5 8
-9 17 -9 21 0 9 36 5 45 -4z m125 4 c0 -4 -10 -13 -22 -21 -23 -14 -23 -14 -4
8 20 22 26 25 26 13z m-107 -59 c4 -10 13 -36 21 -58 8 -22 16 -62 16 -90 3
-79 -12 -255 -22 -261 -4 -3 -8 -15 -9 -27 0 -21 -1 -21 -8 -2 -12 28 -2 275
12 303 8 17 8 25 -1 34 -9 9 -12 7 -12 -10 0 -12 -4 -22 -10 -22 -5 0 -10 13
-10 29 0 15 -5 42 -11 60 -6 17 -8 38 -5 46 7 21 32 19 39 -2z m3270 -13 c36
-60 47 -177 33 -340 -16 -188 -41 -150 -31 48 3 76 8 149 11 165 3 16 1 27 -5
27 -6 0 -11 -10 -12 -22 -1 -31 -24 42 -32 105 -8 56 9 64 36 17z m-3646 -6
c-3 -3 -12 -4 -19 -1 -8 3 -5 6 6 6 11 1 17 -2 13 -5z m378 -582 c-6 -14 -9
-12 -16 11 -11 40 1 71 14 34 5 -15 6 -35 2 -45z m3277 -14 l-11 -23 0 23 c-1
13 -5 20 -11 17 -12 -7 -12 -3 -4 20 6 15 8 15 22 1 12 -12 13 -20 4 -38z
m-422 -78 l0 -50 -37 5 c-21 2 -68 7 -105 10 -81 8 -95 20 -34 29 25 4 59 18
78 31 18 13 48 24 66 24 32 1 32 1 32 -49z m-1373 -26 c-3 -3 -12 -4 -19 -1
-8 3 -5 6 6 6 11 1 17 -2 13 -5z m-61 -19 c-4 -25 -13 -28 -106 -29 -79 -1
-90 1 -90 17 0 19 20 23 38 5 8 -8 15 -8 27 2 8 7 18 10 21 7 3 -3 17 -1 32 3
45 14 80 12 78 -5z m751 -21 c-3 -3 -12 -4 -19 -1 -8 3 -5 6 6 6 11 1 17 -2
13 -5z m683 -71 c0 -40 -2 -73 -5 -73 -11 0 -65 44 -65 52 0 5 11 6 25 2 15
-4 25 -2 25 5 0 6 -13 11 -29 11 -17 0 -33 5 -36 10 -3 6 -50 10 -106 10 -54
0 -99 4 -99 8 0 4 16 8 35 8 32 0 54 9 44 18 -2 2 -25 2 -51 -1 -32 -4 -45 -9
-42 -18 5 -13 -52 -32 -63 -22 -10 10 8 26 22 20 8 -3 15 0 15 6 0 6 -18 14
-40 17 -83 13 -34 19 165 19 l205 0 0 -72z m-2865 56 c-4 -6 0 -43 9 -82 23
-109 29 -149 27 -182 -3 -33 -11 -45 -34 -49 -8 -1 -22 -7 -30 -14 -12 -10
-15 -8 -19 13 -4 18 0 29 13 36 23 12 24 32 4 49 -19 16 -19 25 0 44 13 12 13
19 3 35 -9 15 -9 28 0 59 7 22 12 53 12 71 0 17 5 31 11 31 5 0 7 -5 4 -11z
m3272 -31 c-3 -7 -5 -2 -5 12 0 14 2 19 5 13 2 -7 2 -19 0 -25z m-2542 12 c-3
-5 -10 -10 -16 -10 -5 0 -9 5 -9 10 0 6 7 10 16 10 8 0 12 -4 9 -10z m675 -20
c0 -5 -2 -10 -4 -10 -3 0 -8 5 -11 10 -3 6 -1 10 4 10 6 0 11 -4 11 -10z m100
-10 c0 -5 -2 -10 -4 -10 -3 0 -8 5 -11 10 -3 6 -1 10 4 10 6 0 11 -4 11 -10z
m-95 -20 c3 -5 1 -10 -4 -10 -6 0 -11 5 -11 10 0 6 2 10 4 10 3 0 8 -4 11 -10z
m728 -17 c-7 -2 -19 -2 -25 0 -7 3 -2 5 12 5 14 0 19 -2 13 -5z m-843 -29 c0
-8 -5 -12 -10 -9 -6 4 -8 11 -5 16 9 14 15 11 15 -7z m-66 -40 c3 -8 2 -12 -4
-9 -6 3 -10 10 -10 16 0 14 7 11 14 -7z m35 -15 c-19 -11 -24 -3 -8 14 8 9 16
11 18 5 2 -6 -3 -14 -10 -19z m66 1 c-3 -5 -10 -10 -16 -10 -5 0 -9 5 -9 10 0
6 7 10 16 10 8 0 12 -4 9 -10z m195 -36 c0 -19 -16 -18 -24 2 -11 27 -7 37 9
24 8 -7 15 -19 15 -26z m426 -11 c-10 -10 -19 5 -10 18 6 11 8 11 12 0 2 -7 1
-15 -2 -18z m-187 -72 c26 -22 45 -83 36 -112 -4 -11 0 -30 9 -43 27 -42 34
-168 18 -318 -12 -117 -26 -150 -36 -89 -3 23 -4 46 -2 50 10 15 16 231 7 231
-13 0 -20 24 -32 104 -5 39 -21 95 -34 124 -30 65 -29 59 -7 65 9 3 17 5 18 6
1 0 11 -8 23 -18z m1292 -174 c-1 -12 -15 -9 -19 4 -3 6 1 10 8 8 6 -3 11 -8
11 -12z m71 -32 c3 -14 1 -25 -3 -25 -5 0 -9 11 -9 25 0 14 2 25 4 25 2 0 6
-11 8 -25z m-67 -146 c11 -17 -1 -21 -15 -4 -8 9 -8 15 -2 15 6 0 14 -5 17
-11z m36 -61 c8 -16 8 -19 -2 -16 -6 2 -16 14 -20 27 -11 27 6 19 22 -11z
m199 7 c0 -7 -5 -15 -11 -17 -8 -3 -6 -20 5 -58 18 -62 20 -80 6 -80 -5 0 -17
26 -25 58 -9 31 -19 64 -24 72 -4 8 -6 20 -4 25 5 15 53 15 53 0z m-67 -9 c3
-8 0 -22 -7 -31 -11 -15 -13 -15 -25 -1 -15 18 -8 46 13 46 7 0 16 -6 19 -14z
m-3753 -40 c0 -3 -11 -17 -25 -32 -22 -24 -25 -25 -31 -9 -5 12 -1 23 11 31
18 13 45 19 45 10z m3758 -69 l3 -37 -50 0 c-37 0 -51 4 -51 14 0 18 36 63 45
55 3 -4 -1 -14 -10 -22 -20 -20 -19 -31 1 -23 9 4 23 1 30 -5 11 -9 14 -7 14
13 0 13 -6 30 -12 37 -11 10 -9 12 7 9 15 -2 21 -12 23 -41z m-3375 -48 c-3
-12 0 -25 7 -29 13 -8 6 -30 -11 -30 -11 0 -49 37 -49 48 0 8 36 30 52 31 3 1
4 -8 1 -20z m-383 -4 c0 -8 -2 -15 -4 -15 -2 0 -6 7 -10 15 -3 8 -1 15 4 15 6
0 10 -7 10 -15z m-55 -15 c3 -5 1 -10 -4 -10 -6 0 -11 5 -11 10 0 6 2 10 4 10
3 0 8 -4 11 -10z m3702 -71 c8 -8 8 -18 1 -35 -9 -18 -7 -29 6 -49 15 -22 15
-26 1 -31 -38 -15 -81 42 -57 74 7 9 15 25 18 35 7 20 16 21 31 6z m-1318 -76
c-1 -34 -2 -35 -9 -13 -11 36 -11 50 0 50 6 0 10 -17 9 -37z m-12 -195 c-3 -8
-6 -5 -6 6 -1 11 2 17 5 13 3 -3 4 -12 1 -19z m-1987 -229 c0 -10 -6 -19 -12
-20 -7 0 -3 -4 10 -10 23 -9 23 -12 18 -86 -17 -214 -18 -217 -44 -191 -9 9
-12 2 -12 -32 0 -27 -4 -40 -9 -34 -10 10 11 357 24 386 9 22 25 14 25 -13z
m1669 -72 c-1 -34 -3 -65 -6 -69 -5 -9 -63 12 -63 23 0 5 10 9 23 9 20 1 20 2
4 11 -18 11 -100 -2 -138 -22 -9 -5 -19 -6 -22 -3 -9 9 16 44 31 44 19 0 138
56 146 69 15 24 26 -3 25 -62z m-209 -26 c0 -5 -13 -14 -30 -19 -20 -7 -28
-16 -24 -25 3 -8 -2 -17 -10 -20 -9 -4 -16 -2 -16 3 0 6 5 10 11 10 5 0 7 5 4
10 -4 6 -15 8 -26 5 -10 -4 -19 -2 -19 3 0 4 21 16 48 24 58 20 62 20 62 9z
m-10 -31 c0 -5 -8 -10 -17 -10 -15 0 -16 2 -3 10 19 12 20 12 20 0z m-320 -60
c0 -5 -5 -10 -11 -10 -5 0 -7 5 -4 10 3 6 8 10 11 10 2 0 4 -4 4 -10z m700
-31 c0 -5 -4 -9 -10 -9 -5 0 -10 7 -10 16 0 8 5 12 10 9 6 -3 10 -10 10 -16z
m52 -34 c3 -14 1 -25 -3 -25 -5 0 -9 11 -9 25 0 14 2 25 4 25 2 0 6 -11 8 -25z
m-765 -41 c-3 -3 -12 -4 -19 -1 -8 3 -5 6 6 6 11 1 17 -2 13 -5z m-507 -28 c0
-2 -9 -6 -20 -9 -11 -3 -20 -1 -20 4 0 5 9 9 20 9 11 0 20 -2 20 -4z m210 -56
c0 -5 -2 -10 -4 -10 -3 0 -8 5 -11 10 -3 6 -1 10 4 10 6 0 11 -4 11 -10z
m1009 -32 c19 -51 20 -70 2 -33 -21 42 -24 55 -16 55 3 0 9 -10 14 -22z m-834
-18 c3 -5 1 -10 -4 -10 -6 0 -11 5 -11 10 0 6 2 10 4 10 3 0 8 -4 11 -10z
m-205 -10 c0 -5 -2 -10 -4 -10 -3 0 -8 5 -11 10 -3 6 -1 10 4 10 6 0 11 -4 11
-10z m1209 -59 c0 -26 4 -61 10 -78 5 -18 6 -33 1 -33 -12 0 -21 32 -24 86 -4
50 -12 66 -22 40 -6 -17 -44 -23 -44 -7 0 28 14 39 45 38 34 -1 35 -1 34 -46z
m-1274 -1 c3 -5 -1 -10 -10 -10 -9 0 -13 5 -10 10 3 6 8 10 10 10 2 0 7 -4 10
-10z m-255 -30 c0 -5 -8 -10 -17 -10 -15 0 -16 2 -3 10 19 12 20 12 20 0z
m198 -7 c-4 -22 -22 -20 -26 1 -2 10 3 16 13 16 10 0 15 -7 13 -17z m1252 -15
c0 -43 17 -52 24 -14 8 43 29 38 22 -4 -5 -37 -14 -50 -31 -50 -18 0 -22 7
-30 53 -5 25 -4 37 4 37 6 0 11 -10 11 -22z m-1885 -8 c3 -5 1 -10 -4 -10 -6
0 -11 5 -11 10 0 6 2 10 4 10 3 0 8 -4 11 -10z m435 1 c0 -5 -7 -11 -15 -15
-15 -5 -20 5 -8 17 9 10 23 9 23 -2z m-130 -21 c0 -5 -5 -10 -11 -10 -5 0 -7
5 -4 10 3 6 8 10 11 10 2 0 4 -4 4 -10z m1557 -20 c1 -11 -2 -20 -8 -20 -5 0
-9 9 -9 20 0 11 4 20 8 20 4 0 8 -9 9 -20z m-1837 0 c0 -5 -4 -10 -10 -10 -5
0 -10 5 -10 10 0 6 5 10 10 10 6 0 10 -4 10 -10z m1801 -127 c1 -10 0 -30 -1
-45 -1 -14 3 -29 9 -33 16 -9 13 -35 -4 -35 -8 0 -22 11 -30 24 -14 21 -14 31
-4 65 13 42 28 54 30 24z m1209 -19 c0 -8 -4 -12 -10 -9 -5 3 -10 13 -10 21 0
8 5 12 10 9 6 -3 10 -13 10 -21z"/>
<path d="M5938 7143 c12 -2 32 -2 45 0 12 2 2 4 -23 4 -25 0 -35 -2 -22 -4z"/>
<path d="M5448 7023 c-46 -19 -48 -28 -7 -42 38 -13 223 -15 215 -2 -7 10
-125 34 -146 29 -10 -2 -14 3 -12 15 3 20 -2 21 -50 0z"/>
<path d="M5740 7012 c0 -9 -7 -11 -20 -7 -32 10 -42 -3 -24 -31 16 -24 44 -33
44 -14 0 5 13 7 31 3 27 -5 31 -3 27 13 -2 10 -10 19 -18 19 -8 0 -20 7 -27
15 -9 11 -12 12 -13 2z"/>
<path d="M5868 7003 c-31 -5 -34 -13 -16 -31 18 -18 45 -15 50 6 4 12 16 18
44 20 21 2 40 5 43 7 5 6 -81 4 -121 -2z"/>
<path d="M5540 6909 c0 -11 25 -22 39 -17 6 1 -1 8 -14 15 -14 6 -25 7 -25 2z"/>
<path d="M5645 6910 c-18 -8 -17 -9 8 -9 16 -1 26 3 22 9 -3 6 -7 10 -8 9 -1
0 -11 -4 -22 -9z"/>
<path d="M5734 6903 c-16 -3 -20 -9 -17 -24 3 -10 10 -19 15 -19 6 0 8 7 5 15
-7 16 21 23 113 28 40 2 35 3 -20 4 -41 0 -85 -2 -96 -4z"/>
<path d="M5765 6840 c-11 -17 5 -30 38 -30 38 0 62 13 53 29 -9 14 -83 15 -91
1z"/>
<path d="M3830 6210 c0 -5 5 -10 10 -10 6 0 10 5 10 10 0 6 -4 10 -10 10 -5 0
-10 -4 -10 -10z"/>
<path d="M4578 6073 c12 -2 30 -2 40 0 9 3 -1 5 -23 4 -22 0 -30 -2 -17 -4z"/>
<path d="M4375 5932 c-13 -13 12 -32 41 -32 27 0 34 4 34 19 0 16 -6 19 -36
18 -19 -1 -37 -4 -39 -5z"/>
<path d="M4497 5931 c-17 -6 -17 -8 -3 -20 18 -15 50 -7 44 11 -5 15 -19 18
-41 9z"/>
<path d="M4255 5850 c3 -5 14 -10 23 -10 15 0 15 2 2 10 -20 13 -33 13 -25 0z"/>
<path d="M4310 5850 c-13 -8 -12 -10 3 -10 9 0 17 5 17 10 0 12 -1 12 -20 0z"/>
<path d="M4455 5850 c-30 -8 -30 -8 8 -9 20 0 37 4 37 9 0 11 -2 11 -45 0z"/>
<path d="M4510 5850 c0 -5 5 -10 10 -10 6 0 10 5 10 10 0 6 -4 10 -10 10 -5 0
-10 -4 -10 -10z"/>
<path d="M4390 5830 c6 -11 12 -20 14 -20 2 0 6 9 9 20 4 15 0 20 -14 20 -17
0 -18 -3 -9 -20z"/>
<path d="M4432 5783 c4 -22 44 -29 63 -13 22 18 9 30 -31 30 -28 0 -35 -4 -32
-17z"/>
<path d="M3905 5470 c-3 -5 -1 -10 4 -10 6 0 11 5 11 10 0 6 -2 10 -4 10 -3 0
-8 -4 -11 -10z"/>
<path d="M3380 4975 c-6 -8 -9 -19 -5 -25 8 -12 45 -13 64 -1 11 7 7 13 -17
25 -26 13 -32 14 -42 1z"/>
<path d="M3586 5933 c-6 -14 -5 -15 5 -6 7 7 10 15 7 18 -3 3 -9 -2 -12 -12z"/>
<path d="M5390 5581 c0 -12 5 -21 10 -21 6 0 10 6 10 14 0 8 -4 18 -10 21 -5
3 -10 -3 -10 -14z"/>
<path d="M6327 7935 c4 -11 -3 -15 -25 -15 -32 0 -50 -14 -32 -25 5 -3 35 -10
67 -15 51 -9 59 -7 75 10 18 19 18 20 -4 33 -13 8 -37 17 -55 20 -26 5 -31 3
-26 -8z"/>
<path d="M5985 7720 c3 -5 12 -7 20 -3 21 7 19 13 -6 13 -11 0 -18 -4 -14 -10z"/>
<path d="M5247 7709 c-21 -12 -23 -41 -3 -33 13 5 30 33 24 40 -2 1 -11 -2
-21 -7z"/>
<path d="M5198 7663 c7 -3 16 -2 19 1 4 3 -2 6 -13 5 -11 0 -14 -3 -6 -6z"/>
<path d="M5975 7650 c-3 -5 -1 -10 4 -10 6 0 11 5 11 10 0 6 -2 10 -4 10 -3 0
-8 -4 -11 -10z"/>
<path d="M5885 7633 c-38 -9 -42 -26 -5 -19 19 3 39 11 44 16 11 11 -3 12 -39
3z"/>
<path d="M8565 7240 c3 -5 20 -10 36 -10 18 0 28 4 24 10 -3 6 -20 10 -36 10
-18 0 -28 -4 -24 -10z"/>
<path d="M8648 7233 c6 -2 18 -2 25 0 6 3 1 5 -13 5 -14 0 -19 -2 -12 -5z"/>
<path d="M9210 7076 c0 -2 7 -7 16 -10 8 -3 12 -2 9 4 -6 10 -25 14 -25 6z"/>
<path d="M8860 7040 c0 -8 25 -20 41 -20 20 0 7 18 -16 22 -14 3 -25 2 -25 -2z"/>
<path d="M9047 6961 c-16 -6 -10 -12 33 -39 28 -18 57 -32 64 -32 6 0 17 -5
22 -10 9 -9 49 0 73 17 9 6 -25 36 -63 55 -31 16 -44 18 -57 9 -12 -7 -20 -7
-24 -1 -7 11 -22 12 -48 1z"/>
<path d="M8640 6900 c0 -5 12 -10 26 -10 14 0 23 4 19 10 -3 6 -15 10 -26 10
-10 0 -19 -4 -19 -10z"/>
<path d="M2660 6870 c0 -6 7 -10 15 -10 8 0 15 2 15 4 0 2 -7 6 -15 10 -8 3
-15 1 -15 -4z"/>
<path d="M8430 6869 c0 -9 39 -19 73 -19 48 0 29 18 -23 22 -28 1 -50 0 -50
-3z"/>
<path d="M8558 6843 c6 -2 18 -2 25 0 6 3 1 5 -13 5 -14 0 -19 -2 -12 -5z"/>
<path d="M7450 6030 c0 -5 5 -10 11 -10 5 0 7 5 4 10 -3 6 -8 10 -11 10 -2 0
-4 -4 -4 -10z"/>
<path d="M7165 6000 c3 -5 11 -10 16 -10 6 0 7 5 4 10 -3 6 -11 10 -16 10 -6
0 -7 -4 -4 -10z"/>
<path d="M7367 5934 c-4 -5 -25 -7 -45 -6 l-37 3 25 -22 c13 -11 43 -32 66
-45 36 -21 45 -23 68 -13 32 15 29 27 -14 57 -24 16 -36 19 -41 11 -5 -8 -8
-6 -10 5 -2 10 -8 14 -12 10z"/>
<path d="M6980 5920 c-13 -8 -12 -10 3 -10 9 0 17 5 17 10 0 12 -1 12 -20 0z"/>
<path d="M6840 5776 c0 -8 5 -18 10 -21 6 -3 10 3 10 14 0 12 -4 21 -10 21 -5
0 -10 -6 -10 -14z"/>
<path d="M6930 5650 c0 -5 5 -10 11 -10 5 0 7 5 4 10 -3 6 -8 10 -11 10 -2 0
-4 -4 -4 -10z"/>
<path d="M6840 5640 c0 -12 28 -25 36 -17 3 3 -4 10 -15 17 -15 7 -21 7 -21 0z"/>
<path d="M6634 4819 c-11 -18 9 -26 54 -21 26 2 41 9 39 16 -5 14 -84 18 -93
5z"/>
<path d="M6890 4710 c0 -5 5 -10 10 -10 6 0 10 5 10 10 0 6 -4 10 -10 10 -5 0
-10 -4 -10 -10z"/>
<path d="M6805 4241 c-4 -22 -4 -49 0 -60 4 -13 -1 -24 -17 -35 -19 -14 -21
-19 -11 -35 10 -16 9 -20 -4 -25 -8 -4 -22 -1 -29 5 -11 9 -14 6 -14 -17 0
-16 -3 -39 -6 -51 -5 -17 -2 -23 11 -23 13 0 15 -6 10 -28 -3 -15 1 -60 10
-100 8 -41 15 -91 15 -113 0 -21 5 -39 10 -39 6 0 10 -9 10 -20 0 -11 7 -20
15 -20 8 0 15 7 15 16 0 9 9 18 20 21 21 6 26 18 11 28 -5 3 -12 1 -16 -5 -15
-24 -23 -4 -30 76 -8 97 3 125 29 78 l16 -29 -6 41 c-5 32 0 52 20 92 30 59
32 80 11 88 -8 4 -15 12 -15 19 0 6 -9 20 -21 31 -16 14 -19 26 -15 54 11 73
11 83 -1 87 -6 2 -14 -12 -18 -36z"/>
<path d="M3595 4150 c-8 -13 5 -13 25 0 13 8 13 10 -2 10 -9 0 -20 -4 -23 -10z"/>
<path d="M6942 4125 c9 -19 8 -31 -1 -48 -7 -13 -11 -36 -9 -51 l3 -28 24 33
c19 26 22 36 12 50 -6 10 -11 30 -11 44 0 15 -6 25 -15 25 -12 0 -13 -4 -3
-25z"/>
<path d="M2995 4090 c3 -5 8 -10 11 -10 2 0 4 5 4 10 0 6 -5 10 -11 10 -5 0
-7 -4 -4 -10z"/>
<path d="M3620 4079 c0 -5 5 -7 10 -4 6 3 10 8 10 11 0 2 -4 4 -10 4 -5 0 -10
-5 -10 -11z"/>
<path d="M3647 4033 c4 -11 3 -14 -5 -9 -7 4 -12 2 -12 -3 0 -18 19 -12 30 9
8 16 8 20 -4 20 -10 0 -13 -6 -9 -17z"/>
<path d="M3244 3996 c-19 -15 -19 -15 4 -38 l22 -22 0 21 c0 12 7 29 16 37 14
15 14 16 -3 16 -11 0 -28 -6 -39 -14z"/>
<path d="M3553 3933 c-13 -2 -23 -9 -23 -14 0 -11 46 -4 85 12 17 6 15 8 -10
7 -16 0 -40 -3 -52 -5z"/>
<path d="M3415 3870 c4 -6 11 -8 16 -5 14 9 11 15 -7 15 -8 0 -12 -5 -9 -10z"/>
<path d="M3500 3868 c0 -9 5 -20 10 -23 13 -8 13 5 0 25 -8 13 -10 13 -10 -2z"/>
<path d="M3567 3865 c-4 -8 -3 -17 2 -19 14 -9 51 6 51 20 0 19 -46 18 -53 -1z"/>
<path d="M6927 3753 c-4 -18 1 -39 14 -58 13 -21 19 -25 19 -12 0 9 -4 17 -10
17 -13 0 -13 37 0 45 10 6 2 35 -10 35 -4 0 -10 -12 -13 -27z"/>
<path d="M6730 3705 c0 -14 2 -25 4 -25 2 0 6 11 8 25 3 14 1 25 -3 25 -5 0
-9 -11 -9 -25z"/>
<path d="M6890 3670 c0 -5 5 -10 11 -10 5 0 7 5 4 10 -3 6 -8 10 -11 10 -2 0
-4 -4 -4 -10z"/>
<path d="M5215 3640 c3 -5 8 -10 11 -10 2 0 4 5 4 10 0 6 -5 10 -11 10 -5 0
-7 -4 -4 -10z"/>
<path d="M5234 3595 c-5 -13 -9 -14 -15 -4 -4 8 -11 10 -14 7 -12 -12 6 -28
31 -28 14 0 24 6 24 14 0 22 -19 30 -26 11z"/>
<path d="M6730 3582 c0 -4 9 -32 19 -62 18 -52 41 -78 41 -47 0 8 7 20 15 27
23 19 18 40 -9 40 -17 0 -26 7 -30 25 -6 22 -36 37 -36 17z"/>
<path d="M6615 3570 c3 -5 8 -10 11 -10 2 0 4 5 4 10 0 6 -5 10 -11 10 -5 0
-7 -4 -4 -10z"/>
<path d="M6452 3545 c0 -16 2 -22 5 -12 2 9 2 23 0 30 -3 6 -5 -1 -5 -18z"/>
<path d="M6451 3284 c0 -11 3 -14 6 -6 3 7 2 16 -1 19 -3 4 -6 -2 -5 -13z"/>
<path d="M6451 3234 c0 -11 3 -14 6 -6 3 7 2 16 -1 19 -3 4 -6 -2 -5 -13z"/>
<path d="M5338 3037 c-5 -10 -8 -35 -7 -55 0 -35 1 -35 10 -12 6 13 9 38 7 55
-2 24 -4 26 -10 12z"/>
<path d="M5320 2901 c0 -42 -7 -50 -27 -30 -29 29 -28 -80 3 -262 8 -48 12
-93 9 -101 -3 -8 1 -21 10 -28 12 -10 15 -10 15 4 0 12 5 16 19 11 12 -4 21 0
25 11 5 13 2 15 -13 11 -17 -4 -21 2 -26 37 -4 22 -5 66 -3 96 3 51 4 53 15
30 11 -24 12 -24 12 12 1 21 10 62 21 92 l21 54 -28 48 c-37 63 -53 67 -53 15z"/>
<path d="M5435 2889 c5 -20 3 -34 -5 -39 -6 -4 -10 -24 -8 -46 l3 -39 21 39
c17 32 19 44 10 77 -12 46 -31 53 -21 8z"/>
<path d="M5425 2549 c-4 -12 -2 -26 4 -32 8 -8 11 -2 11 21 0 37 -6 41 -15 11z"/>
<path d="M5430 2483 c0 -5 5 -15 10 -23 8 -12 10 -11 10 8 0 12 -4 22 -10 22
-5 0 -10 -3 -10 -7z"/>
<path d="M5264 2366 c-7 -19 25 -118 36 -111 4 2 13 18 20 34 11 28 10 33 -19
61 -25 25 -32 29 -37 16z"/>
<path d="M5042 2120 c0 -14 2 -19 5 -12 2 6 2 18 0 25 -3 6 -5 1 -5 -13z"/>
</g>
</svg>
